<svg width="33" height="29" viewBox="0 0 33 29" fill="none" xmlns="http://www.w3.org/2000/svg">
<g clip-path="url(#clip0_457_473)">
<path d="M30.4848 9.39429L17.3078 9.34814C18.3422 8.35347 19.9521 6.56613 20.9244 5.45251C21.9779 4.24659 22.1146 2.19777 21.2834 0.974422C20.4515 -0.252001 19.0611 -0.312502 18.1279 0.752927C16.5934 2.51155 14.3614 4.81263 12.5779 6.0247C11.1076 7.0245 9.89668 7.36597 8.37397 9.38301C8.15454 9.74294 7.94471 10.0711 7.75705 10.3849L7.75705 26.5006C7.98535 26.6319 8.21512 26.8442 8.47223 27.0841C9.19554 27.7578 10.0947 28.5977 11.8058 28.6038L20.6791 28.6356C21.7755 28.6397 22.6695 27.3989 22.6724 25.871C22.6732 25.2004 22.5025 24.5605 22.1885 24.0539C23.2073 23.9452 24.0223 22.7383 24.0245 21.2986C24.026 20.51 23.7881 19.7645 23.3691 19.2364C24.538 19.2405 25.0241 17.8131 25.0256 16.7251C25.0271 16.0504 24.8549 15.4146 24.549 14.9183L30.4944 14.9378C31.129 14.9399 31.6033 14.4487 31.6033 14.4487C32.1449 13.9308 32.4663 13.09 32.4678 12.1732C32.4707 10.6453 31.5812 9.39839 30.4848 9.39429Z" fill="#F2F2F2"/>
<path d="M6.98242 26.7063L6.98242 9.68611C6.98242 8.85345 6.49628 8.17871 5.89635 8.17871L1.08661 8.17871C0.486681 8.17871 0.000534037 8.85345 0.000534011 9.6861L0.000533484 26.7063C0.000533458 27.539 0.486681 28.2137 1.08661 28.2137L5.89635 28.2137C6.49628 28.2148 6.98242 27.539 6.98242 26.7063ZM2.41575 25.1641C2.41575 24.3396 2.89746 23.671 3.49148 23.671C4.08549 23.671 4.56721 24.3396 4.56721 25.1641C4.56721 25.9885 4.08549 26.6571 3.49148 26.6571C2.89746 26.6561 2.41575 25.9885 2.41575 25.1641Z" fill="#F2F2F2"/>
</g>
<defs>
<clipPath id="clip0_457_473">
<rect width="28.6364" height="32.4676" fill="white" transform="translate(32.4678) rotate(90)"/>
</clipPath>
</defs>
</svg>
