<svg width="458" height="110" viewBox="0 0 458 110" fill="none" xmlns="http://www.w3.org/2000/svg">
<path d="M105.375 55.5C105.375 82.3969 83.1421 104.375 55.5 104.375C27.8579 104.375 5.625 82.3969 5.625 55.5C5.625 28.6031 27.8579 6.625 55.5 6.625C83.1421 6.625 105.375 28.6031 105.375 55.5Z" fill="#55C6D7" stroke="white" stroke-width="11.25"/>
<path d="M143.394 96.25V7.0166H167.502V76.7798H201.865V96.25H143.394ZM285.894 51.5112C285.894 66.5259 282.211 77.9395 274.846 85.752C267.481 93.5645 256.698 97.4707 242.498 97.4707C228.5 97.4707 217.758 93.5441 210.271 85.6909C202.825 77.8377 199.102 66.4038 199.102 51.3892C199.102 36.5373 202.804 25.2051 210.21 17.3926C217.656 9.53939 228.459 5.61279 242.62 5.61279C256.82 5.61279 267.583 9.4987 274.907 17.2705C282.231 25.0423 285.894 36.4559 285.894 51.5112ZM224.492 51.5112C224.492 68.7638 230.494 77.3901 242.498 77.3901C248.601 77.3901 253.118 75.2946 256.047 71.1035C259.018 66.9124 260.503 60.3817 260.503 51.5112C260.503 42.6001 258.997 36.0286 255.986 31.7969C253.016 27.5244 248.56 25.3882 242.62 25.3882C230.535 25.3882 224.492 34.0959 224.492 51.5112ZM324.084 44.0039H362.598V92.0996C352.14 95.6803 340.645 97.4707 328.113 97.4707C314.36 97.4707 303.719 93.4831 296.191 85.5078C288.704 77.5326 284.961 66.1597 284.961 51.3892C284.961 36.9849 289.071 25.7747 297.29 17.7588C305.509 9.74284 317.025 5.73486 331.836 5.73486C337.451 5.73486 342.741 6.26383 347.705 7.32178C352.71 8.37972 357.064 9.72249 360.767 11.3501L353.137 30.271C346.708 27.0972 339.648 25.5103 331.958 25.5103C324.919 25.5103 319.466 27.8092 315.601 32.4072C311.776 36.9645 309.863 43.4953 309.863 51.9995C309.863 60.341 311.593 66.709 315.051 71.1035C318.551 75.4574 323.576 77.6343 330.127 77.6343C333.708 77.6343 337.004 77.2884 340.015 76.5967V62.6196H324.084V44.0039ZM450.532 51.5112C450.532 66.5259 446.85 77.9395 439.485 85.752C432.12 93.5645 421.337 97.4707 407.136 97.4707C393.139 97.4707 382.397 93.5441 374.91 85.6909C367.463 77.8377 363.74 66.4038 363.74 51.3892C363.74 36.5373 367.443 25.2051 374.849 17.3926C382.295 9.53939 393.098 5.61279 407.258 5.61279C421.459 5.61279 432.222 9.4987 439.546 17.2705C446.87 25.0423 450.532 36.4559 450.532 51.5112ZM389.131 51.5112C389.131 68.7638 395.133 77.3901 407.136 77.3901C413.24 77.3901 417.756 75.2946 420.686 71.1035C423.656 66.9124 425.142 60.3817 425.142 51.5112C425.142 42.6001 423.636 36.0286 420.625 31.7969C417.655 27.5244 413.199 25.3882 407.258 25.3882C395.173 25.3882 389.131 34.0959 389.131 51.5112Z" fill="white"/>
<line x1="127.5" y1="5.46392e-08" x2="127.5" y2="110" stroke="white" stroke-width="2.5"/>
</svg>
